<svg width="22" height="20" viewBox="0 0 22 20" fill="none" xmlns="http://www.w3.org/2000/svg">
<path d="M21 9.99621H4V4.40425C3.99649 4.04399 4.09153 3.68962 4.27484 3.3795C4.45815 3.06938 4.72275 2.81532 5.04 2.64479C5.39081 2.45461 5.79058 2.37404 6.18764 2.41351C5.98554 3.02579 5.95683 3.6821 6.10469 4.30971C6.25255 4.93732 6.5712 5.51173 7.02535 5.96929L8.08594 7.03025C8.17877 7.12316 8.28899 7.19686 8.41031 7.24715C8.53162 7.29744 8.66165 7.32332 8.79297 7.32332C8.92429 7.32332 9.05432 7.29744 9.17563 7.24715C9.29695 7.19686 9.40717 7.12316 9.5 7.03025L13.0352 3.49375C13.128 3.40088 13.2017 3.29062 13.252 3.16925C13.3023 3.04789 13.3281 2.91781 13.3281 2.78645C13.3281 2.65508 13.3023 2.525 13.252 2.40364C13.2017 2.28228 13.128 2.17202 13.0352 2.07915L11.9746 1.0182C11.3843 0.430349 10.6035 0.0727831 9.77301 0.0099555C8.94248 -0.0528721 8.11682 0.183172 7.44489 0.675537C6.83906 0.438838 6.18459 0.353788 5.53841 0.427783C4.89223 0.501779 4.27391 0.732579 3.73722 1.10011C3.20052 1.46765 2.76171 1.96078 2.45895 2.53663C2.15618 3.11248 1.99863 3.75361 2 4.40425V9.99621H1C0.734784 9.99621 0.48043 10.1016 0.292893 10.2892C0.105357 10.4768 0 10.7313 0 10.9966C0 11.2619 0.105357 11.5164 0.292893 11.704C0.48043 11.8916 0.734784 11.997 1 11.997H2V14.9981C2.0019 15.6167 2.19517 16.2196 2.55327 16.7239C2.91137 17.2282 3.41674 17.6093 4 17.8148V18.9996C4 19.2649 4.10536 19.5194 4.29289 19.707C4.48043 19.8946 4.73478 20 5 20C5.26522 20 5.51957 19.8946 5.70711 19.707C5.89464 19.5194 6 19.2649 6 18.9996V17.9992H16V18.9996C16 19.2649 16.1054 19.5194 16.2929 19.707C16.4804 19.8946 16.7348 20 17 20C17.2652 20 17.5196 19.8946 17.7071 19.707C17.8946 19.5194 18 19.2649 18 18.9996V17.8149C18.5833 17.6094 19.0886 17.2283 19.4467 16.7239C19.8048 16.2196 19.9981 15.6167 20 14.9981V11.997H21C21.2652 11.997 21.5196 11.8916 21.7071 11.704C21.8946 11.5164 22 11.2619 22 10.9966C22 10.7313 21.8946 10.4768 21.7071 10.2892C21.5196 10.1016 21.2652 9.99621 21 9.99621ZM8.43945 2.43279C8.72098 2.1519 9.10238 1.99416 9.5 1.99416C9.89762 1.99416 10.279 2.1519 10.5605 2.43279L10.9141 2.78645L8.793 4.90834L8.43948 4.5547C8.15854 4.27314 8.00075 3.89157 8.00074 3.49375C8.00074 3.09593 8.15852 2.71436 8.43945 2.43279ZM18 14.9981C17.9998 15.2634 17.8944 15.5177 17.7069 15.7053C17.5194 15.8929 17.2652 15.9983 17 15.9985H5C4.73484 15.9983 4.48059 15.8929 4.29309 15.7053C4.10559 15.5177 4.00018 15.2634 4 14.9981V11.997H18V14.9981Z" fill="#4F4F4F"/>
</svg>
