<svg width="41" height="39" viewBox="0 0 41 39" fill="none" xmlns="http://www.w3.org/2000/svg">
<path d="M22.6851 0.949566C21.3441 0.214336 19.7213 0.211309 18.3776 0.94153L2.72404 9.44814C1.27647 10.2348 0.375197 11.7503 0.375175 13.3978L0.375 26.3696C0.374977 28.0901 1.35698 29.6597 2.9042 30.4122L5.11788 31.4888C5.66163 30.1861 6.32004 28.9179 7.11385 27.7496C11.5261 21.2561 14.632 19.1572 17.5233 17.2354C17.7395 17.0917 17.7471 16.7774 17.5384 16.6231L10.8371 11.6692C10.7301 11.5901 10.7374 11.4278 10.851 11.3586L12.8829 10.1211C12.9863 10.0581 13.1138 10.049 13.2251 10.0966L17.625 11.9793C17.7386 12.0279 17.8687 12.0174 17.973 11.9513L19.5212 10.9697C19.6093 10.9138 19.7262 10.9408 19.7809 11.0297L20.702 12.525C20.7459 12.5964 20.7371 12.6883 20.6804 12.75L20.5198 12.9248C20.4317 13.0207 20.4659 13.1749 20.5862 13.2246L22.6369 14.0718C22.7016 14.0986 22.7755 14.0868 22.8303 14.0432C23.7278 13.329 25.9833 12.1162 28.7432 12.2481C28.9662 12.2588 29.1196 12.4692 29.0415 12.6782C28.637 13.7613 27.351 15.6688 24.4764 17.0359C24.4172 17.064 24.3757 17.121 24.3685 17.186L24.1373 19.286C24.1251 19.3969 24.212 19.4938 24.3235 19.4938H24.5901C24.6592 19.4938 24.7227 19.5318 24.7553 19.5927L25.5533 21.0835C25.5999 21.1706 25.5709 21.2789 25.487 21.3311L23.8115 22.371C23.7635 22.4008 23.7315 22.4506 23.7244 22.5067L23.109 27.3825C23.1013 27.4441 23.0635 27.4978 23.0082 27.526L20.7429 28.68C20.6235 28.7408 20.4808 28.6603 20.4711 28.5266L19.8551 20.026C19.8458 19.8976 19.7138 19.8165 19.5975 19.8717C17.3676 20.9308 13.1967 24.2646 12.6163 30.0985C12.4279 31.9926 12.5422 33.7184 12.8807 35.2642L18.5675 38.03C19.8087 38.6336 21.2584 38.6336 22.4996 38.03L38.163 30.4122C39.7102 29.6597 40.6922 28.0901 40.6922 26.3696V13.4843C40.6922 11.8427 39.7974 10.3317 38.358 9.54257L22.6851 0.949566Z" fill="#316BFF"/>
</svg>
