<svg width="20" height="21" viewBox="0 0 20 21" fill="none" xmlns="http://www.w3.org/2000/svg">
<path fill-rule="evenodd" clip-rule="evenodd" d="M13.9783 15.9711H4.97839V9.47521C4.97839 6.97678 6.97837 4.97804 9.47833 4.97804C11.9783 4.97804 13.9783 6.97678 13.9783 9.47521V15.9711ZM15.9803 14.9719V9.47536C15.9803 6.40729 13.8403 3.83891 10.9803 3.15934V2.47977C10.9803 1.65186 10.3088 0.980713 9.48035 0.980713C8.65193 0.980713 7.98037 1.65186 7.98037 2.47977V3.15934C5.11041 3.83891 2.98044 6.40729 2.98044 9.47536V14.9719L0.980469 16.9706V17.97H17.9802V16.9706L15.9803 14.9719ZM9.48022 20.9674C10.5847 20.9674 11.4801 20.0726 11.4801 18.9687H7.48035C7.48035 20.0726 8.37572 20.9674 9.48022 20.9674Z" fill="#84878B"/>
<ellipse cx="15.4805" cy="6.47698" rx="4.5" ry="4.497" fill="#EB5757"/>
<path d="M16.0654 8.98022H15.3564V5.55542L14.3105 5.91284V5.31226L15.9746 4.69995H16.0654V8.98022Z" fill="white"/>
</svg>
