<svg width="11" height="11" viewBox="0 0 11 11" fill="none" xmlns="http://www.w3.org/2000/svg">
<path d="M9.39786 4.85209H5.64145V1.09829C5.64145 0.932361 5.57549 0.773229 5.45808 0.6559C5.34067 0.538571 5.18142 0.472656 5.01538 0.472656C4.84934 0.472656 4.69009 0.538571 4.57268 0.6559C4.45527 0.773229 4.38931 0.932361 4.38931 1.09829V4.85209H0.632904C0.46686 4.85209 0.307618 4.918 0.190207 5.03533C0.0727966 5.15266 0.00683594 5.31179 0.00683594 5.47772C0.00683594 5.64365 0.0727966 5.80278 0.190207 5.92011C0.307618 6.03744 0.46686 6.10336 0.632904 6.10336H4.38931V9.85715C4.38931 10.0231 4.45527 10.1822 4.57268 10.2995C4.69009 10.4169 4.84934 10.4828 5.01538 10.4828C5.18142 10.4828 5.34067 10.4169 5.45808 10.2995C5.57549 10.1822 5.64145 10.0231 5.64145 9.85715V6.10336H9.39786C9.5639 6.10336 9.72314 6.03744 9.84056 5.92011C9.95797 5.80278 10.0239 5.64365 10.0239 5.47772C10.0239 5.31179 9.95797 5.15266 9.84056 5.03533C9.72314 4.918 9.5639 4.85209 9.39786 4.85209Z" fill="#B1B5C4"/>
</svg>
