<svg width="152" height="23" viewBox="0 0 152 23" fill="none" xmlns="http://www.w3.org/2000/svg">
<path fill-rule="evenodd" clip-rule="evenodd" d="M5.39165 21.3721L11.0005 18.4298L16.6093 21.3721C17.4167 21.7956 18.3572 21.1061 18.2022 20.2043L17.1327 13.9828L21.6644 9.5753C22.321 8.93664 21.961 7.81858 21.0565 7.68743L14.7876 6.77852L11.9854 1.11329C11.581 0.295569 10.42 0.295569 10.0155 1.11329L7.2134 6.77852L0.944489 7.68743C0.039963 7.81858 -0.320053 8.93664 0.336595 9.5753L4.86823 13.9828L3.79879 20.2043C3.64378 21.1061 4.5843 21.7956 5.39165 21.3721Z" fill="#FFC542"/>
<path fill-rule="evenodd" clip-rule="evenodd" d="M37.7569 21.3721L43.3657 18.4298L48.9746 21.3721C49.7819 21.7956 50.7224 21.1061 50.5674 20.2043L49.498 13.9828L54.0296 9.5753C54.6863 8.93664 54.3262 7.81858 53.4217 7.68743L47.1528 6.77852L44.3507 1.11329C43.9462 0.295569 42.7852 0.295569 42.3808 1.11329L39.5786 6.77852L33.3097 7.68743C32.4052 7.81858 32.0452 8.93664 32.7018 9.5753L37.2335 13.9828L36.164 20.2043C36.009 21.1061 36.9495 21.7956 37.7569 21.3721Z" fill="#FFC542"/>
<path fill-rule="evenodd" clip-rule="evenodd" d="M70.1221 21.3721L75.731 18.4298L81.3398 21.3721C82.1471 21.7956 83.0877 21.1061 82.9327 20.2043L81.8632 13.9828L86.3948 9.5753C87.0515 8.93664 86.6915 7.81858 85.787 7.68743L79.518 6.77852L76.7159 1.11329C76.3114 0.295569 75.1505 0.295569 74.746 1.11329L71.9439 6.77852L65.675 7.68743C64.7704 7.81858 64.4104 8.93664 65.0671 9.5753L69.5987 13.9828L68.5293 20.2043C68.3743 21.1061 69.3148 21.7956 70.1221 21.3721Z" fill="#FFC542"/>
<path fill-rule="evenodd" clip-rule="evenodd" d="M102.487 21.3721L108.096 18.4298L113.705 21.3721C114.512 21.7956 115.453 21.1061 115.298 20.2043L114.228 13.9828L118.76 9.5753C119.417 8.93664 119.057 7.81858 118.152 7.68743L111.883 6.77852L109.081 1.11329C108.677 0.295569 107.516 0.295569 107.111 1.11329L104.309 6.77852L98.0402 7.68743C97.1357 7.81858 96.7757 8.93664 97.4323 9.5753L101.964 13.9828L100.894 20.2043C100.739 21.1061 101.68 21.7956 102.487 21.3721Z" fill="#FFC542"/>
<path d="M140 18.4298L140.233 17.9871L140 17.8652L139.768 17.9871L140 18.4298ZM134.392 21.3721L134.159 20.9293L134.392 21.3721ZM145.609 21.3721L145.842 20.9293L145.609 21.3721ZM147.202 20.2043L147.695 20.1196L147.202 20.2043ZM146.133 13.9828L145.784 13.6244L145.595 13.808L145.64 14.0675L146.133 13.9828ZM150.664 9.5753L150.316 9.21687V9.21687L150.664 9.5753ZM150.056 7.68743L149.985 8.18226L150.056 7.68743ZM143.788 6.77852L143.339 7.0002L143.456 7.23565L143.716 7.27335L143.788 6.77852ZM140.985 1.11329L140.537 1.33497V1.33497L140.985 1.11329ZM139.016 1.11329L139.464 1.33497V1.33497L139.016 1.11329ZM136.213 6.77852L136.285 7.27335L136.545 7.23565L136.662 7.0002L136.213 6.77852ZM129.944 7.68743L130.016 8.18226H130.016L129.944 7.68743ZM129.337 9.5753L129.685 9.21687L129.685 9.21687L129.337 9.5753ZM133.868 13.9828L134.361 14.0675L134.406 13.808L134.217 13.6244L133.868 13.9828ZM132.799 20.2043L132.306 20.1196L132.799 20.2043ZM139.768 17.9871L134.159 20.9293L134.624 21.8149L140.233 18.8726L139.768 17.9871ZM145.842 20.9293L140.233 17.9871L139.768 18.8726L145.377 21.8149L145.842 20.9293ZM146.709 20.289C146.795 20.7879 146.277 21.1578 145.842 20.9293L145.377 21.8149C146.556 22.4334 147.919 21.4243 147.695 20.1196L146.709 20.289ZM145.64 14.0675L146.709 20.289L147.695 20.1196L146.626 13.8981L145.64 14.0675ZM150.316 9.21687L145.784 13.6244L146.481 14.3412L151.013 9.93372L150.316 9.21687ZM149.985 8.18226C150.475 8.25341 150.678 8.86501 150.316 9.21687L151.013 9.93373C151.965 9.00826 151.447 7.38375 150.128 7.19261L149.985 8.18226ZM143.716 7.27335L149.985 8.18226L150.128 7.19261L143.859 6.28369L143.716 7.27335ZM140.537 1.33497L143.339 7.0002L144.236 6.55684L141.434 0.891616L140.537 1.33497ZM139.464 1.33497C139.685 0.888344 140.316 0.888344 140.537 1.33497L141.434 0.891616C140.846 -0.297205 139.155 -0.297205 138.567 0.891616L139.464 1.33497ZM136.662 7.0002L139.464 1.33497L138.567 0.891616L135.765 6.55684L136.662 7.0002ZM130.016 8.18226L136.285 7.27335L136.142 6.28369L129.873 7.19261L130.016 8.18226ZM129.685 9.21687C129.323 8.86501 129.526 8.25341 130.016 8.18226L129.873 7.19261C128.554 7.38375 128.036 9.00826 128.988 9.93373L129.685 9.21687ZM134.217 13.6244L129.685 9.21687L128.988 9.93373L133.52 14.3412L134.217 13.6244ZM133.292 20.289L134.361 14.0675L133.375 13.8981L132.306 20.1196L133.292 20.289ZM134.159 20.9293C133.724 21.1578 133.206 20.7879 133.292 20.289L132.306 20.1196C132.082 21.4243 133.445 22.4334 134.624 21.8149L134.159 20.9293Z" fill="#FFC542"/>
<path fill-rule="evenodd" clip-rule="evenodd" d="M140.001 0.5C139.61 0.5 139.218 0.704431 139.016 1.11329L136.214 6.77852L129.945 7.68743C129.04 7.81858 128.68 8.93664 129.337 9.5753L133.869 13.9828L132.799 20.2043C132.644 21.1061 133.585 21.7956 134.392 21.3721L140.001 18.4298V0.5Z" fill="#FFC542"/>
</svg>
