<svg width="16" height="17" viewBox="0 0 16 17" fill="none" xmlns="http://www.w3.org/2000/svg">
<path d="M9.6 5.13984H10.4C10.6122 5.13984 10.8157 5.05556 10.9657 4.90553C11.1157 4.7555 11.2 4.55202 11.2 4.33984C11.2 4.12767 11.1157 3.92419 10.9657 3.77416C10.8157 3.62413 10.6122 3.53984 10.4 3.53984H9.6C9.38783 3.53984 9.18434 3.62413 9.03432 3.77416C8.88429 3.92419 8.8 4.12767 8.8 4.33984C8.8 4.55202 8.88429 4.7555 9.03432 4.90553C9.18434 5.05556 9.38783 5.13984 9.6 5.13984ZM9.6 8.33984H10.4C10.6122 8.33984 10.8157 8.25556 10.9657 8.10553C11.1157 7.9555 11.2 7.75202 11.2 7.53984C11.2 7.32767 11.1157 7.12419 10.9657 6.97416C10.8157 6.82413 10.6122 6.73984 10.4 6.73984H9.6C9.38783 6.73984 9.18434 6.82413 9.03432 6.97416C8.88429 7.12419 8.8 7.32767 8.8 7.53984C8.8 7.75202 8.88429 7.9555 9.03432 8.10553C9.18434 8.25556 9.38783 8.33984 9.6 8.33984ZM5.6 5.13984H6.4C6.61217 5.13984 6.81566 5.05556 6.96569 4.90553C7.11571 4.7555 7.2 4.55202 7.2 4.33984C7.2 4.12767 7.11571 3.92419 6.96569 3.77416C6.81566 3.62413 6.61217 3.53984 6.4 3.53984H5.6C5.38783 3.53984 5.18434 3.62413 5.03431 3.77416C4.88429 3.92419 4.8 4.12767 4.8 4.33984C4.8 4.55202 4.88429 4.7555 5.03431 4.90553C5.18434 5.05556 5.38783 5.13984 5.6 5.13984ZM5.6 8.33984H6.4C6.61217 8.33984 6.81566 8.25556 6.96569 8.10553C7.11571 7.9555 7.2 7.75202 7.2 7.53984C7.2 7.32767 7.11571 7.12419 6.96569 6.97416C6.81566 6.82413 6.61217 6.73984 6.4 6.73984H5.6C5.38783 6.73984 5.18434 6.82413 5.03431 6.97416C4.88429 7.12419 4.8 7.32767 4.8 7.53984C4.8 7.75202 4.88429 7.9555 5.03431 8.10553C5.18434 8.25556 5.38783 8.33984 5.6 8.33984ZM15.2 14.7398H14.4V1.13984C14.4 0.927671 14.3157 0.724187 14.1657 0.574158C14.0157 0.424129 13.8122 0.339844 13.6 0.339844H2.4C2.18783 0.339844 1.98434 0.424129 1.83431 0.574158C1.68429 0.724187 1.6 0.927671 1.6 1.13984V14.7398H0.8C0.587827 14.7398 0.384344 14.8241 0.234315 14.9742C0.0842854 15.1242 0 15.3277 0 15.5398C0 15.752 0.0842854 15.9555 0.234315 16.1055C0.384344 16.2556 0.587827 16.3398 0.8 16.3398H15.2C15.4122 16.3398 15.6157 16.2556 15.7657 16.1055C15.9157 15.9555 16 15.752 16 15.5398C16 15.3277 15.9157 15.1242 15.7657 14.9742C15.6157 14.8241 15.4122 14.7398 15.2 14.7398ZM8.8 14.7398H7.2V11.5398H8.8V14.7398ZM12.8 14.7398H10.4V10.7398C10.4 10.5277 10.3157 10.3242 10.1657 10.1742C10.0157 10.0241 9.81217 9.93984 9.6 9.93984H6.4C6.18783 9.93984 5.98434 10.0241 5.83431 10.1742C5.68429 10.3242 5.6 10.5277 5.6 10.7398V14.7398H3.2V1.93984H12.8V14.7398Z" fill="#B1B5C4"/>
</svg>
