<svg width="14" height="12" viewBox="0 0 14 12" fill="none" xmlns="http://www.w3.org/2000/svg">
<path d="M13.3236 1.53638L13.3314 1.54427L13.3396 1.55181C13.39 1.59852 13.4304 1.65533 13.458 1.71871C13.4857 1.7821 13.5 1.85063 13.5 1.91996C13.5 1.98929 13.4857 2.05782 13.458 2.1212C13.4304 2.18459 13.39 2.2414 13.3396 2.28811L13.3322 2.29495L13.3251 2.30208L5.19634 10.4621L5.1949 10.4635C5.14868 10.5103 5.0938 10.5473 5.03348 10.5726C4.97316 10.5978 4.90853 10.6108 4.84329 10.6108C4.77806 10.6108 4.71343 10.5978 4.65311 10.5726C4.59278 10.5473 4.5379 10.5103 4.49169 10.4635L4.49024 10.4621L0.664959 6.62208L0.665012 6.62203L0.658801 6.61601C0.609792 6.56848 0.570482 6.51163 0.543211 6.44864C0.515938 6.38565 0.501264 6.31781 0.500078 6.24902C0.498892 6.18023 0.51122 6.11191 0.536313 6.04799C0.561405 5.98407 0.598744 5.92587 0.646105 5.87665C0.693463 5.82744 0.74991 5.78818 0.812169 5.76101C0.874425 5.73385 0.94133 5.71929 1.00908 5.71811C1.07683 5.71694 1.14418 5.72916 1.20732 5.75414C1.26925 5.77864 1.32598 5.81496 1.37437 5.86117L4.4885 8.99727L4.84296 9.35423L5.19776 8.99759L12.6192 1.5376L12.6204 1.53638C12.6666 1.4896 12.7215 1.45258 12.7818 1.42735C12.8422 1.40212 12.9068 1.38916 12.972 1.38916C13.0373 1.38916 13.1019 1.40212 13.1622 1.42735C13.2225 1.45258 13.2774 1.4896 13.3236 1.53638Z" fill="#FF543D" stroke="#878CFF"/>
</svg>
