<svg width="47" height="16" viewBox="0 0 47 16" fill="none" xmlns="http://www.w3.org/2000/svg">
<path d="M20.3081 15.227H16.5684L18.9075 0.76355H22.6471L20.3081 15.227Z" fill="#00579F"/>
<path d="M33.8648 1.11723C33.1272 0.824584 31.9572 0.501465 30.5105 0.501465C26.8174 0.501465 24.2167 2.47085 24.2007 5.28648C24.17 7.36385 26.0627 8.51767 27.4783 9.21033C28.9252 9.91812 29.417 10.3801 29.417 11.011C29.4023 11.9799 28.2479 12.4266 27.1712 12.4266C25.6781 12.4266 24.878 12.1963 23.6623 11.6572L23.1698 11.4261L22.6465 14.6729C23.5236 15.0725 25.1396 15.4271 26.8174 15.4426C30.7414 15.4426 33.2961 13.5037 33.3264 10.5032C33.3413 8.85674 32.3419 7.59514 30.1872 6.56423C28.8792 5.90245 28.0781 5.45622 28.0781 4.7791C28.0935 4.16354 28.7557 3.53305 30.2322 3.53305C31.448 3.50217 32.3413 3.79441 33.018 4.08685L33.3562 4.24044L33.8648 1.11723Z" fill="#00579F"/>
<path d="M38.8359 10.1031C39.1439 9.2722 40.329 6.05635 40.329 6.05635C40.3134 6.08723 40.6363 5.21011 40.821 4.67165L41.0824 5.9179C41.0824 5.9179 41.7906 9.37998 41.9444 10.1031H38.8359ZM43.4522 0.76355H40.5594C39.6674 0.76355 38.9897 1.02491 38.6048 1.96359L33.0498 15.2268H36.9739C36.9739 15.2268 37.6199 13.4417 37.7587 13.0572H42.5603C42.6677 13.565 43.0066 15.2268 43.0066 15.2268H46.4692L43.4522 0.76355Z" fill="#00579F"/>
<path d="M13.4442 0.76355L9.78167 10.6262L9.38145 8.62597C8.70433 6.31792 6.58075 3.81027 4.21094 2.5634L7.56564 15.2117H11.5204L17.3987 0.76355H13.4442Z" fill="#00579F"/>
<path d="M6.38125 0.76355H0.36429L0.302734 1.05579C4.99634 2.25603 8.10482 5.14917 9.38196 8.62658L8.07394 1.97933C7.8586 1.05558 7.19682 0.794021 6.38125 0.76355Z" fill="#FAA61A"/>
</svg>
