<svg width="22" height="18" viewBox="0 0 22 18" fill="none" xmlns="http://www.w3.org/2000/svg">
<path d="M10.9991 12.0023C10.4006 12.0023 9.81555 12.1781 9.3179 12.5077C8.82025 12.8372 8.43238 13.3055 8.20334 13.8535C7.9743 14.4015 7.91437 15.0045 8.03114 15.5862C8.1479 16.1679 8.43611 16.7023 8.85933 17.1217C9.28254 17.541 9.82175 17.8267 10.4088 17.9424C10.9958 18.0581 11.6042 17.9987 12.1572 17.7717C12.7102 17.5447 13.1828 17.1604 13.5153 16.6672C13.8478 16.1741 14.0253 15.5943 14.0253 15.0011C14.0253 14.2058 13.7065 13.443 13.139 12.8806C12.5714 12.3182 11.8017 12.0023 10.9991 12.0023ZM10.9991 16.0008C10.7996 16.0008 10.6046 15.9421 10.4387 15.8323C10.2728 15.7224 10.1436 15.5663 10.0672 15.3837C9.99086 15.201 9.97088 15 10.0098 14.8061C10.0487 14.6122 10.1448 14.4341 10.2859 14.2943C10.4269 14.1545 10.6067 14.0593 10.8023 14.0207C10.998 13.9821 11.2008 14.0019 11.3852 14.0776C11.5695 14.1533 11.727 14.2814 11.8379 14.4458C11.9487 14.6102 12.0079 14.8034 12.0079 15.0011C12.0079 15.2662 11.9016 15.5205 11.7124 15.708C11.5232 15.8954 11.2667 16.0008 10.9991 16.0008ZM10.9991 8.00377C9.1277 8.01016 7.33402 8.74631 6.00599 10.053C5.81812 10.2403 5.71266 10.4936 5.71266 10.7577C5.71266 11.0218 5.81812 11.2752 6.00599 11.4625C6.19499 11.6486 6.45065 11.7532 6.71714 11.7532C6.98363 11.7532 7.23929 11.6486 7.42828 11.4625C7.89679 10.997 8.45335 10.6277 9.0661 10.3758C9.67885 10.1238 10.3357 9.99408 10.9991 9.99408C11.6625 9.99408 12.3194 10.1238 12.9322 10.3758C13.5449 10.6277 14.1015 10.997 14.57 11.4625C14.7562 11.6508 15.01 11.7586 15.2761 11.7624C15.4808 11.774 15.6842 11.7236 15.8592 11.6179C16.0342 11.5121 16.1726 11.356 16.2558 11.1704C16.3391 10.9847 16.3633 10.7783 16.3252 10.5787C16.2872 10.3791 16.1886 10.1957 16.0427 10.053C15.379 9.39995 14.592 8.88286 13.7266 8.53125C12.8612 8.17964 11.9344 8.0004 10.9991 8.00377ZM10.9991 4.00528C8.05771 4.01303 5.23793 5.16956 3.15132 7.22407C3.05727 7.31727 2.98267 7.42792 2.93177 7.5497C2.88087 7.67147 2.85467 7.80199 2.85467 7.9338C2.85467 8.2 2.96138 8.4553 3.15132 8.64353C3.34127 8.83177 3.59889 8.93751 3.86751 8.93751C4.13614 8.93751 4.39376 8.83177 4.5837 8.64353C6.28591 6.95876 8.59334 6.01245 10.9991 6.01245C13.4049 6.01245 15.7124 6.95876 17.4146 8.64353C17.5088 8.73618 17.6206 8.80948 17.7435 8.85922C17.8664 8.90897 17.998 8.93418 18.1308 8.93342C18.2635 8.93418 18.3951 8.90897 18.518 8.85922C18.6409 8.80948 18.7527 8.73618 18.847 8.64353C18.9415 8.5506 19.0165 8.44005 19.0678 8.31823C19.119 8.19642 19.1453 8.06576 19.1453 7.9338C19.1453 7.80184 19.119 7.67118 19.0678 7.54937C19.0165 7.42756 18.9415 7.317 18.847 7.22407C16.7603 5.16956 13.9406 4.01303 10.9991 4.00528ZM21.7016 4.39514C20.2965 3.00177 18.628 1.89643 16.7917 1.1423C14.9553 0.388158 12.987 0 10.9991 0C9.01132 0 7.04299 0.388158 5.20661 1.1423C3.37023 1.89643 1.7018 3.00177 0.296655 4.39514C0.10671 4.58337 0 4.83867 0 5.10487C0 5.37107 0.10671 5.62637 0.296655 5.8146C0.4866 6.00283 0.744221 6.10858 1.01284 6.10858C1.28147 6.10858 1.53909 6.00283 1.72903 5.8146C4.18806 3.37901 7.52245 2.01081 10.9991 2.01081C14.4758 2.01081 17.8102 3.37901 20.2692 5.8146C20.363 5.90829 20.4746 5.98266 20.5975 6.03341C20.7204 6.08416 20.8523 6.11029 20.9854 6.11029C21.1186 6.11029 21.2504 6.08416 21.3734 6.03341C21.4963 5.98266 21.6079 5.90829 21.7016 5.8146C21.7962 5.72167 21.8712 5.61111 21.9224 5.4893C21.9736 5.36749 22 5.23683 22 5.10487C22 4.97291 21.9736 4.84225 21.9224 4.72044C21.8712 4.59863 21.7962 4.48806 21.7016 4.39514Z" fill="#4F4F4F"/>
</svg>
